<svg id="visual" viewBox="0 0 1920 1080" width="1920" height="1080" xmlns="http://www.w3.org/2000/svg" xmlns:xlink="http://www.w3.org/1999/xlink" version="1.1"><rect width="1920" height="1080" fill="#ffffff"></rect><g><g transform="translate(1343 463)"><path d="M0 -42.6L36.9 -21.3L36.9 21.3L0 42.6L-36.9 21.3L-36.9 -21.3Z" stroke="#efe5ff" fill="none" stroke-width="2"></path></g><g transform="translate(212 979)"><path d="M0 -21L18.2 -10.5L18.2 10.5L0 21L-18.2 10.5L-18.2 -10.5Z" stroke="#efe5ff" fill="none" stroke-width="2"></path></g><g transform="translate(375 940)"><path d="M0 -35L30.3 -17.5L30.3 17.5L0 35L-30.3 17.5L-30.3 -17.5Z" stroke="#efe5ff" fill="none" stroke-width="2"></path></g><g transform="translate(1324 274)"><path d="M0 -23L19.9 -11.5L19.9 11.5L0 23L-19.9 11.5L-19.9 -11.5Z" stroke="#efe5ff" fill="none" stroke-width="2"></path></g><g transform="translate(1788 638)"><path d="M0 -35L30.3 -17.5L30.3 17.5L0 35L-30.3 17.5L-30.3 -17.5Z" stroke="#efe5ff" fill="none" stroke-width="2"></path></g><g transform="translate(347 1075)"><path d="M0 -12L10.4 -6L10.4 6L0 12L-10.4 6L-10.4 -6Z" stroke="#efe5ff" fill="none" stroke-width="2"></path></g><g transform="translate(1711 585)"><path d="M0 -9L7.8 -4.5L7.8 4.5L0 9L-7.8 4.5L-7.8 -4.5Z" stroke="#efe5ff" fill="none" stroke-width="2"></path></g><g transform="translate(827 419)"><path d="M0 -36L31.2 -18L31.2 18L0 36L-31.2 18L-31.2 -18Z" stroke="#efe5ff" fill="none" stroke-width="2"></path></g><g transform="translate(1643 824)"><path d="M0 -7L6.1 -3.5L6.1 3.5L0 7L-6.1 3.5L-6.1 -3.5Z" stroke="#efe5ff" fill="none" stroke-width="2"></path></g><g transform="translate(1111 587)"><path d="M0 -38L32.9 -19L32.9 19L0 38L-32.9 19L-32.9 -19Z" stroke="#efe5ff" fill="none" stroke-width="2"></path></g><g transform="translate(59 683)"><path d="M0 -18L15.6 -9L15.6 9L0 18L-15.6 9L-15.6 -9Z" stroke="#efe5ff" fill="none" stroke-width="2"></path></g><g transform="translate(1462 775)"><path d="M0 -34L29.4 -17L29.4 17L0 34L-29.4 17L-29.4 -17Z" stroke="#efe5ff" fill="none" stroke-width="2"></path></g><g transform="translate(1698 690)"><path d="M0 -38L32.9 -19L32.9 19L0 38L-32.9 19L-32.9 -19Z" stroke="#efe5ff" fill="none" stroke-width="2"></path></g><g transform="translate(1246 374)"><path d="M0 -19L16.5 -9.5L16.5 9.5L0 19L-16.5 9.5L-16.5 -9.5Z" stroke="#efe5ff" fill="none" stroke-width="2"></path></g><g transform="translate(494 687)"><path d="M0 -27L23.4 -13.5L23.4 13.5L0 27L-23.4 13.5L-23.4 -13.5Z" stroke="#efe5ff" fill="none" stroke-width="2"></path></g><g transform="translate(950 229)"><path d="M0 -33L28.6 -16.5L28.6 16.5L0 33L-28.6 16.5L-28.6 -16.5Z" stroke="#efe5ff" fill="none" stroke-width="2"></path></g><g transform="translate(1158 739)"><path d="M0 -11L9.5 -5.5L9.5 5.5L0 11L-9.5 5.5L-9.5 -5.5Z" stroke="#efe5ff" fill="none" stroke-width="2"></path></g><g transform="translate(1646 66)"><path d="M0 -34L29.4 -17L29.4 17L0 34L-29.4 17L-29.4 -17Z" stroke="#efe5ff" fill="none" stroke-width="2"></path></g><g transform="translate(974 376)"><path d="M0 -20L17.3 -10L17.3 10L0 20L-17.3 10L-17.3 -10Z" stroke="#efe5ff" fill="none" stroke-width="2"></path></g><g transform="translate(895 694)"><path d="M0 -23L19.9 -11.5L19.9 11.5L0 23L-19.9 11.5L-19.9 -11.5Z" stroke="#efe5ff" fill="none" stroke-width="2"></path></g><g transform="translate(621 100)"><path d="M0 -41L35.5 -20.5L35.5 20.5L0 41L-35.5 20.5L-35.5 -20.5Z" stroke="#efe5ff" fill="none" stroke-width="2"></path></g><g transform="translate(181 122)"><path d="M0 -21L18.2 -10.5L18.2 10.5L0 21L-18.2 10.5L-18.2 -10.5Z" stroke="#efe5ff" fill="none" stroke-width="2"></path></g><g transform="translate(1585 375)"><path d="M0 -33L28.6 -16.5L28.6 16.5L0 33L-28.6 16.5L-28.6 -16.5Z" stroke="#efe5ff" fill="none" stroke-width="2"></path></g><g transform="translate(1670 373)"><path d="M0 -32L27.7 -16L27.7 16L0 32L-27.7 16L-27.7 -16Z" stroke="#efe5ff" fill="none" stroke-width="2"></path></g><g transform="translate(1239 680)"><path d="M0 -10L8.7 -5L8.7 5L0 10L-8.7 5L-8.7 -5Z" stroke="#efe5ff" fill="none" stroke-width="2"></path></g><g transform="translate(787 744)"><path d="M0 -31L26.8 -15.5L26.8 15.5L0 31L-26.8 15.5L-26.8 -15.5Z" stroke="#efe5ff" fill="none" stroke-width="2"></path></g><g transform="translate(1458 102)"><path d="M0 -40L34.6 -20L34.6 20L0 40L-34.6 20L-34.6 -20Z" stroke="#efe5ff" fill="none" stroke-width="2"></path></g><g transform="translate(843 1032)"><path d="M0 -5L4.3 -2.5L4.3 2.5L0 5L-4.3 2.5L-4.3 -2.5Z" stroke="#efe5ff" fill="none" stroke-width="2"></path></g><g transform="translate(1684 991)"><path d="M0 -41L35.5 -20.5L35.5 20.5L0 41L-35.5 20.5L-35.5 -20.5Z" stroke="#efe5ff" fill="none" stroke-width="2"></path></g><g transform="translate(536 971)"><path d="M0 -6L5.2 -3L5.2 3L0 6L-5.2 3L-5.2 -3Z" stroke="#efe5ff" fill="none" stroke-width="2"></path></g><g transform="translate(1783 451)"><path d="M0 -31L26.8 -15.5L26.8 15.5L0 31L-26.8 15.5L-26.8 -15.5Z" stroke="#efe5ff" fill="none" stroke-width="2"></path></g><g transform="translate(638 725)"><path d="M0 -41L35.5 -20.5L35.5 20.5L0 41L-35.5 20.5L-35.5 -20.5Z" stroke="#efe5ff" fill="none" stroke-width="2"></path></g><g transform="translate(855 117)"><path d="M0 -34L29.4 -17L29.4 17L0 34L-29.4 17L-29.4 -17Z" stroke="#efe5ff" fill="none" stroke-width="2"></path></g><g transform="translate(571 476)"><path d="M0 -32L27.7 -16L27.7 16L0 32L-27.7 16L-27.7 -16Z" stroke="#efe5ff" fill="none" stroke-width="2"></path></g><g transform="translate(1444 236)"><path d="M0 -26L22.5 -13L22.5 13L0 26L-22.5 13L-22.5 -13Z" stroke="#efe5ff" fill="none" stroke-width="2"></path></g><g transform="translate(280 644)"><path d="M0 -34L29.4 -17L29.4 17L0 34L-29.4 17L-29.4 -17Z" stroke="#efe5ff" fill="none" stroke-width="2"></path></g><g transform="translate(1087 917)"><path d="M0 -33L28.6 -16.5L28.6 16.5L0 33L-28.6 16.5L-28.6 -16.5Z" stroke="#efe5ff" fill="none" stroke-width="2"></path></g><g transform="translate(1901 102)"><path d="M0 -9L7.8 -4.5L7.8 4.5L0 9L-7.8 4.5L-7.8 -4.5Z" stroke="#efe5ff" fill="none" stroke-width="2"></path></g><g transform="translate(876 513)"><path d="M0 -8L6.9 -4L6.9 4L0 8L-6.9 4L-6.9 -4Z" stroke="#efe5ff" fill="none" stroke-width="2"></path></g><g transform="translate(530 845)"><path d="M0 -23L19.9 -11.5L19.9 11.5L0 23L-19.9 11.5L-19.9 -11.5Z" stroke="#efe5ff" fill="none" stroke-width="2"></path></g><g transform="translate(1257 985)"><path d="M0 -15L13 -7.5L13 7.5L0 15L-13 7.5L-13 -7.5Z" stroke="#efe5ff" fill="none" stroke-width="2"></path></g><g transform="translate(1868 309)"><path d="M0 -21L18.2 -10.5L18.2 10.5L0 21L-18.2 10.5L-18.2 -10.5Z" stroke="#efe5ff" fill="none" stroke-width="2"></path></g><g transform="translate(1561 773)"><path d="M0 -19L16.5 -9.5L16.5 9.5L0 19L-16.5 9.5L-16.5 -9.5Z" stroke="#efe5ff" fill="none" stroke-width="2"></path></g><g transform="translate(1425 982)"><path d="M0 -7L6.1 -3.5L6.1 3.5L0 7L-6.1 3.5L-6.1 -3.5Z" stroke="#efe5ff" fill="none" stroke-width="2"></path></g><g transform="translate(432 19)"><path d="M0 -17L14.7 -8.5L14.7 8.5L0 17L-14.7 8.5L-14.7 -8.5Z" stroke="#efe5ff" fill="none" stroke-width="2"></path></g><g transform="translate(278 786)"><path d="M0 -31L26.8 -15.5L26.8 15.5L0 31L-26.8 15.5L-26.8 -15.5Z" stroke="#efe5ff" fill="none" stroke-width="2"></path></g><g transform="translate(1028 845)"><path d="M0 -41L35.5 -20.5L35.5 20.5L0 41L-35.5 20.5L-35.5 -20.5Z" stroke="#efe5ff" fill="none" stroke-width="2"></path></g><g transform="translate(693 548)"><path d="M0 -5L4.3 -2.5L4.3 2.5L0 5L-4.3 2.5L-4.3 -2.5Z" stroke="#efe5ff" fill="none" stroke-width="2"></path></g><g transform="translate(527 222)"><path d="M0 -20L17.3 -10L17.3 10L0 20L-17.3 10L-17.3 -10Z" stroke="#efe5ff" fill="none" stroke-width="2"></path></g><g transform="translate(175 342)"><path d="M0 -41L35.5 -20.5L35.5 20.5L0 41L-35.5 20.5L-35.5 -20.5Z" stroke="#efe5ff" fill="none" stroke-width="2"></path></g><g transform="translate(961 566)"><path d="M0 -10L8.7 -5L8.7 5L0 10L-8.7 5L-8.7 -5Z" stroke="#efe5ff" fill="none" stroke-width="2"></path></g><g transform="translate(1571 584)"><path d="M0 -7L6.1 -3.5L6.1 3.5L0 7L-6.1 3.5L-6.1 -3.5Z" stroke="#efe5ff" fill="none" stroke-width="2"></path></g><g transform="translate(367 483)"><path d="M0 -5L4.3 -2.5L4.3 2.5L0 5L-4.3 2.5L-4.3 -2.5Z" stroke="#efe5ff" fill="none" stroke-width="2"></path></g><g transform="translate(1181 242)"><path d="M0 -38L32.9 -19L32.9 19L0 38L-32.9 19L-32.9 -19Z" stroke="#efe5ff" fill="none" stroke-width="2"></path></g><g transform="translate(1908 612)"><path d="M0 -28L24.2 -14L24.2 14L0 28L-24.2 14L-24.2 -14Z" stroke="#efe5ff" fill="none" stroke-width="2"></path></g><g transform="translate(748 363)"><path d="M0 -6L5.2 -3L5.2 3L0 6L-5.2 3L-5.2 -3Z" stroke="#efe5ff" fill="none" stroke-width="2"></path></g><g transform="translate(1078 221)"><path d="M0 -38L32.9 -19L32.9 19L0 38L-32.9 19L-32.9 -19Z" stroke="#efe5ff" fill="none" stroke-width="2"></path></g><g transform="translate(1268 562)"><path d="M0 -10L8.7 -5L8.7 5L0 10L-8.7 5L-8.7 -5Z" stroke="#efe5ff" fill="none" stroke-width="2"></path></g><g transform="translate(1310 38)"><path d="M0 -12L10.4 -6L10.4 6L0 12L-10.4 6L-10.4 -6Z" stroke="#efe5ff" fill="none" stroke-width="2"></path></g><g transform="translate(627 864)"><path d="M0 -16L13.9 -8L13.9 8L0 16L-13.9 8L-13.9 -8Z" stroke="#efe5ff" fill="none" stroke-width="2"></path></g><g transform="translate(1059 74)"><path d="M0 -7L6.1 -3.5L6.1 3.5L0 7L-6.1 3.5L-6.1 -3.5Z" stroke="#efe5ff" fill="none" stroke-width="2"></path></g><g transform="translate(71 965)"><path d="M0 -32L27.7 -16L27.7 16L0 32L-27.7 16L-27.7 -16Z" stroke="#efe5ff" fill="none" stroke-width="2"></path></g><g transform="translate(1809 244)"><path d="M0 -20L17.3 -10L17.3 10L0 20L-17.3 10L-17.3 -10Z" stroke="#efe5ff" fill="none" stroke-width="2"></path></g><g transform="translate(1484 441)"><path d="M0 -27L23.4 -13.5L23.4 13.5L0 27L-23.4 13.5L-23.4 -13.5Z" stroke="#efe5ff" fill="none" stroke-width="2"></path></g><g transform="translate(1012 985)"><path d="M0 -19L16.5 -9.5L16.5 9.5L0 19L-16.5 9.5L-16.5 -9.5Z" stroke="#efe5ff" fill="none" stroke-width="2"></path></g><g transform="translate(1724 890)"><path d="M0 -24L20.8 -12L20.8 12L0 24L-20.8 12L-20.8 -12Z" stroke="#efe5ff" fill="none" stroke-width="2"></path></g><g transform="translate(222 32)"><path d="M0 -35L30.3 -17.5L30.3 17.5L0 35L-30.3 17.5L-30.3 -17.5Z" stroke="#efe5ff" fill="none" stroke-width="2"></path></g><g transform="translate(987 720)"><path d="M0 -19L16.5 -9.5L16.5 9.5L0 19L-16.5 9.5L-16.5 -9.5Z" stroke="#efe5ff" fill="none" stroke-width="2"></path></g><g transform="translate(304 412)"><path d="M0 -16L13.9 -8L13.9 8L0 16L-13.9 8L-13.9 -8Z" stroke="#efe5ff" fill="none" stroke-width="2"></path></g><g transform="translate(95 217)"><path d="M0 -34L29.4 -17L29.4 17L0 34L-29.4 17L-29.4 -17Z" stroke="#efe5ff" fill="none" stroke-width="2"></path></g><g transform="translate(1376 371)"><path d="M0 -11L9.5 -5.5L9.5 5.5L0 11L-9.5 5.5L-9.5 -5.5Z" stroke="#efe5ff" fill="none" stroke-width="2"></path></g><g transform="translate(1350 696)"><path d="M0 -21L18.2 -10.5L18.2 10.5L0 21L-18.2 10.5L-18.2 -10.5Z" stroke="#efe5ff" fill="none" stroke-width="2"></path></g><g transform="translate(70 845)"><path d="M0 -10L8.7 -5L8.7 5L0 10L-8.7 5L-8.7 -5Z" stroke="#efe5ff" fill="none" stroke-width="2"></path></g><g transform="translate(21 119)"><path d="M0 -26L22.5 -13L22.5 13L0 26L-22.5 13L-22.5 -13Z" stroke="#efe5ff" fill="none" stroke-width="2"></path></g><g transform="translate(861 205)"><path d="M0 -25L21.7 -12.5L21.7 12.5L0 25L-21.7 12.5L-21.7 -12.5Z" stroke="#efe5ff" fill="none" stroke-width="2"></path></g><g transform="translate(65 348)"><path d="M0 -32L27.7 -16L27.7 16L0 32L-27.7 16L-27.7 -16Z" stroke="#efe5ff" fill="none" stroke-width="2"></path></g><g transform="translate(1279 822)"><path d="M0 -11L9.5 -5.5L9.5 5.5L0 11L-9.5 5.5L-9.5 -5.5Z" stroke="#efe5ff" fill="none" stroke-width="2"></path></g><g transform="translate(552 595)"><path d="M0 -7L6.1 -3.5L6.1 3.5L0 7L-6.1 3.5L-6.1 -3.5Z" stroke="#efe5ff" fill="none" stroke-width="2"></path></g><g transform="translate(1047 316)"><path d="M0 -9L7.8 -4.5L7.8 4.5L0 9L-7.8 4.5L-7.8 -4.5Z" stroke="#efe5ff" fill="none" stroke-width="2"></path></g><g transform="translate(1760 809)"><path d="M0 -30L26 -15L26 15L0 30L-26 15L-26 -15Z" stroke="#efe5ff" fill="none" stroke-width="2"></path></g><g transform="translate(1316 174)"><path d="M0 -6L5.2 -3L5.2 3L0 6L-5.2 3L-5.2 -3Z" stroke="#efe5ff" fill="none" stroke-width="2"></path></g><g transform="translate(333 221)"><path d="M0 -30L26 -15L26 15L0 30L-26 15L-26 -15Z" stroke="#efe5ff" fill="none" stroke-width="2"></path></g><g transform="translate(71 575)"><path d="M0 -25L21.7 -12.5L21.7 12.5L0 25L-21.7 12.5L-21.7 -12.5Z" stroke="#efe5ff" fill="none" stroke-width="2"></path></g><g transform="translate(351 136)"><path d="M0 -41L35.5 -20.5L35.5 20.5L0 41L-35.5 20.5L-35.5 -20.5Z" stroke="#efe5ff" fill="none" stroke-width="2"></path></g><g transform="translate(660 183)"><path d="M0 -13L11.3 -6.5L11.3 6.5L0 13L-11.3 6.5L-11.3 -6.5Z" stroke="#efe5ff" fill="none" stroke-width="2"></path></g><g transform="translate(242 555)"><path d="M0 -40L34.6 -20L34.6 20L0 40L-34.6 20L-34.6 -20Z" stroke="#efe5ff" fill="none" stroke-width="2"></path></g><g transform="translate(152 708)"><path d="M0 -9L7.8 -4.5L7.8 4.5L0 9L-7.8 4.5L-7.8 -4.5Z" stroke="#efe5ff" fill="none" stroke-width="2"></path></g><g transform="translate(612 270)"><path d="M0 -33L28.6 -16.5L28.6 16.5L0 33L-28.6 16.5L-28.6 -16.5Z" stroke="#efe5ff" fill="none" stroke-width="2"></path></g><g transform="translate(670 641)"><path d="M0 -5L4.3 -2.5L4.3 2.5L0 5L-4.3 2.5L-4.3 -2.5Z" stroke="#efe5ff" fill="none" stroke-width="2"></path></g><g transform="translate(1889 705)"><path d="M0 -39L33.8 -19.5L33.8 19.5L0 39L-33.8 19.5L-33.8 -19.5Z" stroke="#efe5ff" fill="none" stroke-width="2"></path></g><g transform="translate(916 3)"><path d="M0 -23L19.9 -11.5L19.9 11.5L0 23L-19.9 11.5L-19.9 -11.5Z" stroke="#efe5ff" fill="none" stroke-width="2"></path></g><g transform="translate(928 951)"><path d="M0 -10L8.7 -5L8.7 5L0 10L-8.7 5L-8.7 -5Z" stroke="#efe5ff" fill="none" stroke-width="2"></path></g><g transform="translate(1127 145)"><path d="M0 -15L13 -7.5L13 7.5L0 15L-13 7.5L-13 -7.5Z" stroke="#efe5ff" fill="none" stroke-width="2"></path></g><g transform="translate(751 120)"><path d="M0 -34L29.4 -17L29.4 17L0 34L-29.4 17L-29.4 -17Z" stroke="#efe5ff" fill="none" stroke-width="2"></path></g><g transform="translate(1493 883)"><path d="M0 -18L15.6 -9L15.6 9L0 18L-15.6 9L-15.6 -9Z" stroke="#efe5ff" fill="none" stroke-width="2"></path></g><g transform="translate(1139 1000)"><path d="M0 -14L12.1 -7L12.1 7L0 14L-12.1 7L-12.1 -7Z" stroke="#efe5ff" fill="none" stroke-width="2"></path></g><g transform="translate(1834 896)"><path d="M0 -29L25.1 -14.5L25.1 14.5L0 29L-25.1 14.5L-25.1 -14.5Z" stroke="#efe5ff" fill="none" stroke-width="2"></path></g><g transform="translate(1792 131)"><path d="M0 -38L32.9 -19L32.9 19L0 38L-32.9 19L-32.9 -19Z" stroke="#efe5ff" fill="none" stroke-width="2"></path></g><g transform="translate(770 948)"><path d="M0 -22L19.1 -11L19.1 11L0 22L-19.1 11L-19.1 -11Z" stroke="#efe5ff" fill="none" stroke-width="2"></path></g><g transform="translate(1313 1070)"><path d="M0 -12L10.4 -6L10.4 6L0 12L-10.4 6L-10.4 -6Z" stroke="#efe5ff" fill="none" stroke-width="2"></path></g><g transform="translate(190 451)"><path d="M0 -15L13 -7.5L13 7.5L0 15L-13 7.5L-13 -7.5Z" stroke="#efe5ff" fill="none" stroke-width="2"></path></g><g transform="translate(1628 207)"><path d="M0 -7L6.1 -3.5L6.1 3.5L0 7L-6.1 3.5L-6.1 -3.5Z" stroke="#efe5ff" fill="none" stroke-width="2"></path></g><g transform="translate(1448 688)"><path d="M0 -16L13.9 -8L13.9 8L0 16L-13.9 8L-13.9 -8Z" stroke="#efe5ff" fill="none" stroke-width="2"></path></g><g transform="translate(1684 487)"><path d="M0 -25L21.7 -12.5L21.7 12.5L0 25L-21.7 12.5L-21.7 -12.5Z" stroke="#efe5ff" fill="none" stroke-width="2"></path></g><g transform="translate(740 1038)"><path d="M0 -38L32.9 -19L32.9 19L0 38L-32.9 19L-32.9 -19Z" stroke="#efe5ff" fill="none" stroke-width="2"></path></g><g transform="translate(1181 447)"><path d="M0 -30L26 -15L26 15L0 30L-26 15L-26 -15Z" stroke="#efe5ff" fill="none" stroke-width="2"></path></g><g transform="translate(454 897)"><path d="M0 -12L10.4 -6L10.4 6L0 12L-10.4 6L-10.4 -6Z" stroke="#efe5ff" fill="none" stroke-width="2"></path></g><g transform="translate(766 862)"><path d="M0 -29L25.1 -14.5L25.1 14.5L0 29L-25.1 14.5L-25.1 -14.5Z" stroke="#efe5ff" fill="none" stroke-width="2"></path></g><g transform="translate(421 291)"><path d="M0 -9L7.8 -4.5L7.8 4.5L0 9L-7.8 4.5L-7.8 -4.5Z" stroke="#efe5ff" fill="none" stroke-width="2"></path></g><g transform="translate(550 356)"><path d="M0 -16L13.9 -8L13.9 8L0 16L-13.9 8L-13.9 -8Z" stroke="#efe5ff" fill="none" stroke-width="2"></path></g><g transform="translate(388 581)"><path d="M0 -39L33.8 -19.5L33.8 19.5L0 39L-33.8 19.5L-33.8 -19.5Z" stroke="#efe5ff" fill="none" stroke-width="2"></path></g><g transform="translate(192 823)"><path d="M0 -8L6.9 -4L6.9 4L0 8L-6.9 4L-6.9 -4Z" stroke="#efe5ff" fill="none" stroke-width="2"></path></g><g transform="translate(492 443)"><path d="M0 -15L13 -7.5L13 7.5L0 15L-13 7.5L-13 -7.5Z" stroke="#efe5ff" fill="none" stroke-width="2"></path></g><g transform="translate(127 1066)"><path d="M0 -19L16.5 -9.5L16.5 9.5L0 19L-16.5 9.5L-16.5 -9.5Z" stroke="#efe5ff" fill="none" stroke-width="2"></path></g><g transform="translate(1764 36)"><path d="M0 -17L14.7 -8.5L14.7 8.5L0 17L-14.7 8.5L-14.7 -8.5Z" stroke="#efe5ff" fill="none" stroke-width="2"></path></g><g transform="translate(675 939)"><path d="M0 -31L26.8 -15.5L26.8 15.5L0 31L-26.8 15.5L-26.8 -15.5Z" stroke="#efe5ff" fill="none" stroke-width="2"></path></g><g transform="translate(769 503)"><path d="M0 -11L9.5 -5.5L9.5 5.5L0 11L-9.5 5.5L-9.5 -5.5Z" stroke="#efe5ff" fill="none" stroke-width="2"></path></g><g transform="translate(1395 860)"><path d="M0 -9L7.8 -4.5L7.8 4.5L0 9L-7.8 4.5L-7.8 -4.5Z" stroke="#efe5ff" fill="none" stroke-width="2"></path></g><g transform="translate(1437 1075)"><path d="M0 -33L28.6 -16.5L28.6 16.5L0 33L-28.6 16.5L-28.6 -16.5Z" stroke="#efe5ff" fill="none" stroke-width="2"></path></g><g transform="translate(467 541)"><path d="M0 -31L26.8 -15.5L26.8 15.5L0 31L-26.8 15.5L-26.8 -15.5Z" stroke="#efe5ff" fill="none" stroke-width="2"></path></g><g transform="translate(1606 1064)"><path d="M0 -19L16.5 -9.5L16.5 9.5L0 19L-16.5 9.5L-16.5 -9.5Z" stroke="#efe5ff" fill="none" stroke-width="2"></path></g><g transform="translate(5 1048)"><path d="M0 -25L21.7 -12.5L21.7 12.5L0 25L-21.7 12.5L-21.7 -12.5Z" stroke="#efe5ff" fill="none" stroke-width="2"></path></g><g transform="translate(1192 819)"><path d="M0 -36L31.2 -18L31.2 18L0 36L-31.2 18L-31.2 -18Z" stroke="#efe5ff" fill="none" stroke-width="2"></path></g><g transform="translate(1868 1006)"><path d="M0 -17L14.7 -8.5L14.7 8.5L0 17L-14.7 8.5L-14.7 -8.5Z" stroke="#efe5ff" fill="none" stroke-width="2"></path></g><g transform="translate(1159 330)"><path d="M0 -16L13.9 -8L13.9 8L0 16L-13.9 8L-13.9 -8Z" stroke="#efe5ff" fill="none" stroke-width="2"></path></g><g transform="translate(57 457)"><path d="M0 -38L32.9 -19L32.9 19L0 38L-32.9 19L-32.9 -19Z" stroke="#efe5ff" fill="none" stroke-width="2"></path></g><g transform="translate(1447 554)"><path d="M0 -18L15.6 -9L15.6 9L0 18L-15.6 9L-15.6 -9Z" stroke="#efe5ff" fill="none" stroke-width="2"></path></g><g transform="translate(981 481)"><path d="M0 -16L13.9 -8L13.9 8L0 16L-13.9 8L-13.9 -8Z" stroke="#efe5ff" fill="none" stroke-width="2"></path></g><g transform="translate(1903 403)"><path d="M0 -33L28.6 -16.5L28.6 16.5L0 33L-28.6 16.5L-28.6 -16.5Z" stroke="#efe5ff" fill="none" stroke-width="2"></path></g><g transform="translate(654 1068)"><path d="M0 -20L17.3 -10L17.3 10L0 20L-17.3 10L-17.3 -10Z" stroke="#efe5ff" fill="none" stroke-width="2"></path></g><g transform="translate(873 611)"><path d="M0 -33L28.6 -16.5L28.6 16.5L0 33L-28.6 16.5L-28.6 -16.5Z" stroke="#efe5ff" fill="none" stroke-width="2"></path></g><g transform="translate(441 1038)"><path d="M0 -38L32.9 -19L32.9 19L0 38L-32.9 19L-32.9 -19Z" stroke="#efe5ff" fill="none" stroke-width="2"></path></g><g transform="translate(689 20)"><path d="M0 -29L25.1 -14.5L25.1 14.5L0 29L-25.1 14.5L-25.1 -14.5Z" stroke="#efe5ff" fill="none" stroke-width="2"></path></g><g transform="translate(310 42)"><path d="M0 -18L15.6 -9L15.6 9L0 18L-15.6 9L-15.6 -9Z" stroke="#efe5ff" fill="none" stroke-width="2"></path></g><g transform="translate(1546 503)"><path d="M0 -18L15.6 -9L15.6 9L0 18L-15.6 9L-15.6 -9Z" stroke="#efe5ff" fill="none" stroke-width="2"></path></g><g transform="translate(330 867)"><path d="M0 -10L8.7 -5L8.7 5L0 10L-8.7 5L-8.7 -5Z" stroke="#efe5ff" fill="none" stroke-width="2"></path></g><g transform="translate(41 18)"><path d="M0 -14L12.1 -7L12.1 7L0 14L-12.1 7L-12.1 -7Z" stroke="#efe5ff" fill="none" stroke-width="2"></path></g><g transform="translate(1580 9)"><path d="M0 -24L20.8 -12L20.8 12L0 24L-20.8 12L-20.8 -12Z" stroke="#efe5ff" fill="none" stroke-width="2"></path></g><g transform="translate(974 96)"><path d="M0 -24L20.8 -12L20.8 12L0 24L-20.8 12L-20.8 -12Z" stroke="#efe5ff" fill="none" stroke-width="2"></path></g><g transform="translate(1174 69)"><path d="M0 -9L7.8 -4.5L7.8 4.5L0 9L-7.8 4.5L-7.8 -4.5Z" stroke="#efe5ff" fill="none" stroke-width="2"></path></g><g transform="translate(1565 129)"><path d="M0 -41L35.5 -20.5L35.5 20.5L0 41L-35.5 20.5L-35.5 -20.5Z" stroke="#efe5ff" fill="none" stroke-width="2"></path></g><g transform="translate(290 306)"><path d="M0 -19L16.5 -9.5L16.5 9.5L0 19L-16.5 9.5L-16.5 -9.5Z" stroke="#efe5ff" fill="none" stroke-width="2"></path></g><g transform="translate(386 706)"><path d="M0 -24L20.8 -12L20.8 12L0 24L-20.8 12L-20.8 -12Z" stroke="#efe5ff" fill="none" stroke-width="2"></path></g><g transform="translate(467 773)"><path d="M0 -24L20.8 -12L20.8 12L0 24L-20.8 12L-20.8 -12Z" stroke="#efe5ff" fill="none" stroke-width="2"></path></g><g transform="translate(1715 195)"><path d="M0 -18L15.6 -9L15.6 9L0 18L-15.6 9L-15.6 -9Z" stroke="#efe5ff" fill="none" stroke-width="2"></path></g><g transform="translate(1602 936)"><path d="M0 -25L21.7 -12.5L21.7 12.5L0 25L-21.7 12.5L-21.7 -12.5Z" stroke="#efe5ff" fill="none" stroke-width="2"></path></g><g transform="translate(245 227)"><path d="M0 -19L16.5 -9.5L16.5 9.5L0 19L-16.5 9.5L-16.5 -9.5Z" stroke="#efe5ff" fill="none" stroke-width="2"></path></g><g transform="translate(666 414)"><path d="M0 -36L31.2 -18L31.2 18L0 36L-31.2 18L-31.2 -18Z" stroke="#efe5ff" fill="none" stroke-width="2"></path></g><g transform="translate(511 136)"><path d="M0 -14L12.1 -7L12.1 7L0 14L-12.1 7L-12.1 -7Z" stroke="#efe5ff" fill="none" stroke-width="2"></path></g><g transform="translate(742 257)"><path d="M0 -36L31.2 -18L31.2 18L0 36L-31.2 18L-31.2 -18Z" stroke="#efe5ff" fill="none" stroke-width="2"></path></g><g transform="translate(766 613)"><path d="M0 -23L19.9 -11.5L19.9 11.5L0 23L-19.9 11.5L-19.9 -11.5Z" stroke="#efe5ff" fill="none" stroke-width="2"></path></g><g transform="translate(1083 434)"><path d="M0 -38L32.9 -19L32.9 19L0 38L-32.9 19L-32.9 -19Z" stroke="#efe5ff" fill="none" stroke-width="2"></path></g><g transform="translate(1846 538)"><path d="M0 -12L10.4 -6L10.4 6L0 12L-10.4 6L-10.4 -6Z" stroke="#efe5ff" fill="none" stroke-width="2"></path></g><g transform="translate(847 324)"><path d="M0 -19L16.5 -9.5L16.5 9.5L0 19L-16.5 9.5L-16.5 -9.5Z" stroke="#efe5ff" fill="none" stroke-width="2"></path></g><g transform="translate(1785 330)"><path d="M0 -33L28.6 -16.5L28.6 16.5L0 33L-28.6 16.5L-28.6 -16.5Z" stroke="#efe5ff" fill="none" stroke-width="2"></path></g><g transform="translate(558 17)"><path d="M0 -22L19.1 -11L19.1 11L0 22L-19.1 11L-19.1 -11Z" stroke="#efe5ff" fill="none" stroke-width="2"></path></g><g transform="translate(1556 259)"><path d="M0 -31L26.8 -15.5L26.8 15.5L0 31L-26.8 15.5L-26.8 -15.5Z" stroke="#efe5ff" fill="none" stroke-width="2"></path></g><g transform="translate(708 777)"><path d="M0 -19L16.5 -9.5L16.5 9.5L0 19L-16.5 9.5L-16.5 -9.5Z" stroke="#efe5ff" fill="none" stroke-width="2"></path></g><g transform="translate(857 817)"><path d="M0 -22L19.1 -11L19.1 11L0 22L-19.1 11L-19.1 -11Z" stroke="#efe5ff" fill="none" stroke-width="2"></path></g><g transform="translate(1359 593)"><path d="M0 -5L4.3 -2.5L4.3 2.5L0 5L-4.3 2.5L-4.3 -2.5Z" stroke="#efe5ff" fill="none" stroke-width="2"></path></g><g transform="translate(1496 322)"><path d="M0 -24L20.8 -12L20.8 12L0 24L-20.8 12L-20.8 -12Z" stroke="#efe5ff" fill="none" stroke-width="2"></path></g><g transform="translate(1857 801)"><path d="M0 -8L6.9 -4L6.9 4L0 8L-6.9 4L-6.9 -4Z" stroke="#efe5ff" fill="none" stroke-width="2"></path></g><g transform="translate(1514 984)"><path d="M0 -18L15.6 -9L15.6 9L0 18L-15.6 9L-15.6 -9Z" stroke="#efe5ff" fill="none" stroke-width="2"></path></g><g transform="translate(969 1065)"><path d="M0 -33L28.6 -16.5L28.6 16.5L0 33L-28.6 16.5L-28.6 -16.5Z" stroke="#efe5ff" fill="none" stroke-width="2"></path></g><g transform="translate(417 193)"><path d="M0 -18L15.6 -9L15.6 9L0 18L-15.6 9L-15.6 -9Z" stroke="#efe5ff" fill="none" stroke-width="2"></path></g><g transform="translate(782 29)"><path d="M0 -40L34.6 -20L34.6 20L0 40L-34.6 20L-34.6 -20Z" stroke="#efe5ff" fill="none" stroke-width="2"></path></g><g transform="translate(1899 192)"><path d="M0 -33L28.6 -16.5L28.6 16.5L0 33L-28.6 16.5L-28.6 -16.5Z" stroke="#efe5ff" fill="none" stroke-width="2"></path></g><g transform="translate(424 385)"><path d="M0 -41L35.5 -20.5L35.5 20.5L0 41L-35.5 20.5L-35.5 -20.5Z" stroke="#efe5ff" fill="none" stroke-width="2"></path></g><g transform="translate(1913 17)"><path d="M0 -27L23.4 -13.5L23.4 13.5L0 27L-23.4 13.5L-23.4 -13.5Z" stroke="#efe5ff" fill="none" stroke-width="2"></path></g><g transform="translate(1563 683)"><path d="M0 -28L24.2 -14L24.2 14L0 28L-24.2 14L-24.2 -14Z" stroke="#efe5ff" fill="none" stroke-width="2"></path></g><g transform="translate(1454 16)"><path d="M0 -11L9.5 -5.5L9.5 5.5L0 11L-9.5 5.5L-9.5 -5.5Z" stroke="#efe5ff" fill="none" stroke-width="2"></path></g><g transform="translate(1006 3)"><path d="M0 -39L33.8 -19.5L33.8 19.5L0 39L-33.8 19.5L-33.8 -19.5Z" stroke="#efe5ff" fill="none" stroke-width="2"></path></g><g transform="translate(1668 286)"><path d="M0 -12L10.4 -6L10.4 6L0 12L-10.4 6L-10.4 -6Z" stroke="#efe5ff" fill="none" stroke-width="2"></path></g><g transform="translate(1768 1012)"><path d="M0 -15L13 -7.5L13 7.5L0 15L-13 7.5L-13 -7.5Z" stroke="#efe5ff" fill="none" stroke-width="2"></path></g><g transform="translate(1046 650)"><path d="M0 -18L15.6 -9L15.6 9L0 18L-15.6 9L-15.6 -9Z" stroke="#efe5ff" fill="none" stroke-width="2"></path></g><g transform="translate(1189 929)"><path d="M0 -13L11.3 -6.5L11.3 6.5L0 13L-11.3 6.5L-11.3 -6.5Z" stroke="#efe5ff" fill="none" stroke-width="2"></path></g><g transform="translate(257 1078)"><path d="M0 -22L19.1 -11L19.1 11L0 22L-19.1 11L-19.1 -11Z" stroke="#efe5ff" fill="none" stroke-width="2"></path></g><g transform="translate(1213 158)"><path d="M0 -31L26.8 -15.5L26.8 15.5L0 31L-26.8 15.5L-26.8 -15.5Z" stroke="#efe5ff" fill="none" stroke-width="2"></path></g><g transform="translate(167 599)"><path d="M0 -13L11.3 -6.5L11.3 6.5L0 13L-11.3 6.5L-11.3 -6.5Z" stroke="#efe5ff" fill="none" stroke-width="2"></path></g><g transform="translate(1187 534)"><path d="M0 -37L32 -18.5L32 18.5L0 37L-32 18.5L-32 -18.5Z" stroke="#efe5ff" fill="none" stroke-width="2"></path></g><g transform="translate(1211 1061)"><path d="M0 -29L25.1 -14.5L25.1 14.5L0 29L-25.1 14.5L-25.1 -14.5Z" stroke="#efe5ff" fill="none" stroke-width="2"></path></g><g transform="translate(1070 1072)"><path d="M0 -20L17.3 -10L17.3 10L0 20L-17.3 10L-17.3 -10Z" stroke="#efe5ff" fill="none" stroke-width="2"></path></g><g transform="translate(144 919)"><path d="M0 -17L14.7 -8.5L14.7 8.5L0 17L-14.7 8.5L-14.7 -8.5Z" stroke="#efe5ff" fill="none" stroke-width="2"></path></g><g transform="translate(18 775)"><path d="M0 -9L7.8 -4.5L7.8 4.5L0 9L-7.8 4.5L-7.8 -4.5Z" stroke="#efe5ff" fill="none" stroke-width="2"></path></g><g transform="translate(1349 940)"><path d="M0 -29L25.1 -14.5L25.1 14.5L0 29L-25.1 14.5L-25.1 -14.5Z" stroke="#efe5ff" fill="none" stroke-width="2"></path></g><g transform="translate(1801 722)"><path d="M0 -30L26 -15L26 15L0 30L-26 15L-26 -15Z" stroke="#efe5ff" fill="none" stroke-width="2"></path></g><g transform="translate(6 267)"><path d="M0 -25L21.7 -12.5L21.7 12.5L0 25L-21.7 12.5L-21.7 -12.5Z" stroke="#efe5ff" fill="none" stroke-width="2"></path></g><g transform="translate(940 793)"><path d="M0 -15L13 -7.5L13 7.5L0 15L-13 7.5L-13 -7.5Z" stroke="#efe5ff" fill="none" stroke-width="2"></path></g><g transform="translate(302 995)"><path d="M0 -12L10.4 -6L10.4 6L0 12L-10.4 6L-10.4 -6Z" stroke="#efe5ff" fill="none" stroke-width="2"></path></g><g transform="translate(129 27)"><path d="M0 -14L12.1 -7L12.1 7L0 14L-12.1 7L-12.1 -7Z" stroke="#efe5ff" fill="none" stroke-width="2"></path></g><g transform="translate(1069 744)"><path d="M0 -11L9.5 -5.5L9.5 5.5L0 11L-9.5 5.5L-9.5 -5.5Z" stroke="#efe5ff" fill="none" stroke-width="2"></path></g><g transform="translate(265 133)"><path d="M0 -13L11.3 -6.5L11.3 6.5L0 13L-11.3 6.5L-11.3 -6.5Z" stroke="#efe5ff" fill="none" stroke-width="2"></path></g><g transform="translate(531 1064)"><path d="M0 -25L21.7 -12.5L21.7 12.5L0 25L-21.7 12.5L-21.7 -12.5Z" stroke="#efe5ff" fill="none" stroke-width="2"></path></g><g transform="translate(1915 928)"><path d="M0 -5L4.3 -2.5L4.3 2.5L0 5L-4.3 2.5L-4.3 -2.5Z" stroke="#efe5ff" fill="none" stroke-width="2"></path></g><g transform="translate(1370 108)"><path d="M0 -15L13 -7.5L13 7.5L0 15L-13 7.5L-13 -7.5Z" stroke="#efe5ff" fill="none" stroke-width="2"></path></g></g></svg>