<svg width="57" height="17" viewBox="0 0 57 17" fill="none" xmlns="http://www.w3.org/2000/svg">
    <path d="M8.94 14.04V7.12C8.94 5.96 8.93333 5.2 8.92 4.84C8.89333 4.29333 8.82 3.9 8.7 3.66C8.58 3.40667 8.38667 3.25333 8.12 3.2C7.85333 3.16 7.47333 3.14 6.98 3.14C6.40667 3.14 6.03333 3.16667 5.86 3.22V0.099999C5.98 0.0866658 6.16 0.0799992 6.4 0.0799992H6.98C8.47333 0.0799992 9.62667 0.199999 10.44 0.439999C11.2667 0.666666 11.8667 1.04667 12.24 1.58C12.5867 2.07333 12.8 2.72 12.88 3.52C12.9733 4.32 13.02 5.52 13.02 7.12C13.02 8.57333 12.96 9.72 12.84 10.56C12.7333 11.3867 12.48 12.0733 12.08 12.62L14.72 16.18V16.3H10.24L8.94 14.04ZM6.98 14.16C5.03333 14.16 3.63333 13.9467 2.78 13.52C2.34 13.3067 1.99333 13.02 1.74 12.66C1.48667 12.3 1.3 11.8533 1.18 11.32C1.07333 10.8533 1.00667 10.32 0.98 9.72C0.953333 9.10667 0.94 8.24 0.94 7.12C0.94 5.72 0.966667 4.64667 1.02 3.9C1.08667 3.15333 1.24 2.52667 1.48 2.02C1.74667 1.47333 2.15333 1.05333 2.7 0.759999C3.24667 0.466666 4.02 0.266666 5.02 0.159999V7.12C5.02 7.90667 5.03333 8.66 5.06 9.38C5.08667 9.92667 5.15333 10.3267 5.26 10.58C5.38 10.8333 5.57333 10.98 5.84 11.02C6.06667 11.0733 6.44667 11.1 6.98 11.1C7.52667 11.1 7.9 11.08 8.1 11.04V14.12C7.59333 14.1467 7.22 14.16 6.98 14.16ZM18.3848 0.24H18.7248L20.3048 5.72L18.0048 14H14.0048L18.3848 0.24ZM22.8848 11.56H19.5448L20.3848 8.48H21.9848L19.6248 0.24H23.2848L27.6648 14H23.5848L22.8848 11.56ZM26.9769 0.24H38.2369V3.44H26.9769V0.24ZM30.5969 4.24H34.5969V14H30.5969V4.24ZM39.718 0.24H43.718V14H39.718V0.24ZM46.0395 0.559999C47.6129 0.239999 49.1195 0.0799992 50.5595 0.0799992C50.8662 0.0799992 51.0929 0.0866658 51.2395 0.099999V3.2C50.9195 3.16 50.4862 3.14 49.9395 3.14C49.6062 3.14 49.1329 3.15333 48.5195 3.18L46.0395 3.42V0.559999ZM52.1995 9.86C52.1995 9.56667 52.1729 9.34 52.1195 9.18C52.0795 9.00667 51.9995 8.87333 51.8795 8.78C51.6795 8.64667 51.2329 8.58 50.5395 8.58H48.3395V5.52H50.5395C50.8862 5.52 51.1595 5.50667 51.3595 5.48C51.5595 5.45333 51.7129 5.4 51.8195 5.32C51.9262 5.24 51.9929 5.13333 52.0195 5C52.0595 4.85333 52.0795 4.63333 52.0795 4.34V0.159999C53.5195 0.306666 54.5595 0.673332 55.1995 1.26C55.8395 1.83333 56.1595 2.64667 56.1595 3.7C56.1595 4.67333 55.9662 5.40667 55.5795 5.9C55.2062 6.39333 54.6062 6.74 53.7795 6.94V7.02C54.6462 7.22 55.2662 7.53333 55.6395 7.96C56.0662 8.46667 56.2795 9.25333 56.2795 10.32C56.2795 11.44 56.0129 12.2867 55.4795 12.86C54.8662 13.5133 53.7729 13.92 52.1995 14.08V9.86ZM50.6795 14.16C49.9462 14.16 49.1062 14.1067 48.1595 14C47.2129 13.9067 46.4795 13.8 45.9595 13.68V10.82C47.5729 11.0067 49.0129 11.1 50.2795 11.1C50.5729 11.1 50.9329 11.0867 51.3595 11.06V14.14C51.2262 14.1533 50.9995 14.16 50.6795 14.16Z" fill="black"/>
</svg>
